<?xml version="1.0" encoding="UTF-8"?>
<svg width="41px" height="40px" viewBox="0 0 41 40" version="1.1" xmlns="http://www.w3.org/2000/svg" xmlns:xlink="http://www.w3.org/1999/xlink">
    <title>Hand Copy</title>
    <g id="Startsida" stroke="none" stroke-width="1" fill="none" fill-rule="evenodd">
        <g id="Start-Page" transform="translate(-374.000000, -5532.000000)" fill="#1E44CB" fill-rule="nonzero">
            <g id="Group-7" transform="translate(-116.500000, 5479.000000)">
                <g id="Hand-Copy" transform="translate(490.553180, 52.999322)">
                    <path d="M26.2601742,39.0723221 C26.0938018,38.9618148 25.151025,37.7110735 25.151025,37.6055893 C25.151025,37.5804741 25.0955675,37.5001051 25.0300269,37.4297823 C24.9291951,37.3192751 24.1275827,36.2041564 23.1747227,34.8378848 C23.0385998,34.6470086 22.7814789,34.2753024 22.5999817,34.0191265 C22.2168211,33.4716132 19.1918686,29.1668532 19.1767438,29.146761 C19.1666607,29.1367149 18.929706,29.061369 18.6423356,28.9810001 C18.3549651,28.8956081 17.7650993,28.7248242 17.3365644,28.5992477 C16.9080295,28.4736713 16.474453,28.3531179 16.3786628,28.3229796 C16.2828726,28.2978643 16.0005437,28.2124723 15.7484644,28.1321034 C14.9065193,27.8658814 14.6393151,27.7905355 14.4628596,27.7553741 C14.3670694,27.740305 14.2057386,27.6950974 14.1099484,27.654913 C13.8326611,27.5494288 13.2579202,27.3786448 13.1772548,27.3786448 C13.1369221,27.3786448 13.0058408,27.3485065 12.8898843,27.308322 C12.7688862,27.2731606 12.4714325,27.1777226 12.2193532,27.1023767 C11.2715347,26.8210855 10.3539658,26.2635261 9.62293561,25.5251367 C9.17423433,25.0730616 8.8263648,24.6159634 7.80292254,23.1341615 C7.67688286,22.9583545 6.63831584,21.4765526 6.19465615,20.8486705 C6.10894916,20.723094 5.68545581,20.1253502 5.26196247,19.5175603 C4.83846912,18.9097704 4.43514213,18.3421649 4.36960149,18.2517499 C4.30406085,18.1613348 4.17802117,17.9805048 4.08727259,17.8499053 C3.94106656,17.6439599 3.35120082,16.8000863 1.7126849,14.4693878 C1.50597982,14.1780505 1.26398362,13.8364826 1.16819346,13.7058831 C1.07744488,13.5702605 1.00686266,13.4597533 1.01190425,13.4497072 C1.02198742,13.4446841 0.92619726,13.3090616 0.800157574,13.1483237 C0.482537564,12.7414561 0.205250254,12.2793348 0.109460093,11.9829745 C0.0691273932,11.8473519 0.0187115187,11.500761 0.00862834383,11.2194698 C-0.011538006,10.7874868 -0.00145483107,10.6468412 0.0943353305,10.3404348 C0.41195534,9.29061579 1.18331822,8.60748001 2.26221793,8.41660384 C2.77141827,8.32618881 3.1999532,8.32618881 3.95114973,8.42162689 C4.25868656,8.46181135 4.53597387,8.49194969 4.57126499,8.49194969 C4.60151451,8.49194969 4.50068276,8.30107352 4.33431038,8.06498983 C4.12760529,7.76862945 4.01164878,7.54259188 3.95619132,7.32660042 C3.91081703,7.15079342 3.74444464,6.45761152 3.57807226,5.77949879 C3.41169987,5.10138607 3.14953733,4.041521 2.9982897,3.4186619 C2.61512906,1.85146805 2.59496271,1.72589162 2.66050334,1.41446207 C2.81175097,0.716257117 3.30582654,0.239066681 4.02173195,0.103444136 C4.30910244,0.0481905063 4.69226309,0.108467193 4.95946722,0.244089738 C5.04517421,0.284274196 5.88207772,0.78155686 6.82485458,1.34916233 C7.76763143,1.91174473 8.84653115,2.55469606 9.21960862,2.77571058 C10.2329677,3.37345439 10.0867617,3.21773961 11.2564099,4.90046378 C11.9370243,5.87493688 12.0227312,5.99549026 12.0681055,5.98544414 C12.0983551,5.98544414 12.1286046,5.36258505 12.1487709,4.43834252 C12.1739789,2.90631006 12.1790205,2.88621784 12.3101017,2.53962689 C12.5773059,1.85649111 12.7991357,1.5048771 13.1974211,1.10303252 C13.9435761,0.364643111 14.8258539,0.00298299129 15.8694625,0.00298299129 C16.8475304,0.00298299129 17.6995587,0.339527825 18.3902562,0.987502206 L18.7835,1.35418538 L18.954914,1.17837838 C20.0590216,0.0280982774 21.7630782,-0.318492671 23.2100138,0.309389482 C23.9712935,0.640911258 24.661991,1.2939087 25.0300269,2.03732117 C25.4131875,2.81589503 25.4182291,2.85607949 25.443437,4.96576352 C25.4535202,5.9904672 25.4736866,6.83434081 25.4888113,6.83434081 C25.5039361,6.83434081 25.6551837,6.72383355 25.8265977,6.58821101 C27.313866,5.41783867 28.8767581,4.70958761 30.747187,4.36299666 C31.3068032,4.26253551 31.5286331,4.24746634 32.763822,4.24746634 C34.4124211,4.24746634 35.0627859,4.33285832 36.5198047,4.73972595 C37.8659085,5.11645524 39.5800482,5.96535191 40.719447,6.8242947 L40.8807778,6.94484807 L40.8807778,4.64428786 C40.8807778,2.50446549 40.9059857,23.0286773 40.8858194,22.5263716 L40.8706946,21.9637892 L40.3564527,22.1898267 C39.8422108,22.4158643 39.741379,22.4560488 39.2926778,22.6569711 C39.1565549,22.7222708 38.9044755,22.8227319 38.7381031,22.8830086 C38.5717308,22.9483084 38.1633622,23.1291384 37.8306174,23.2848532 C37.5029142,23.445591 36.9785891,23.6816747 36.6710523,23.8122742 C35.7383586,24.2090957 34.5787935,24.7164245 34.0746348,24.9424621 C33.5301433,25.1885919 30.137155,26.6854629 28.5440133,27.3836679 C27.9541476,27.6398438 27.4701552,27.8709044 27.4701552,27.8960197 C27.4701552,27.9362042 28.0801873,28.8102161 29.7892854,31.2263067 C29.9959905,31.517644 30.2026956,31.8089813 30.2430283,31.8642349 C30.283361,31.9245116 30.7219791,32.5523938 31.2210963,33.2556218 C32.189081,34.6319395 32.3352871,34.8881154 32.2899128,35.1241991 C32.2042058,35.5612051 32.446202,35.3753519 28.1053952,38.3992324 C27.0718698,39.1225526 27.0164123,39.152691 26.7240002,39.1727832 C26.4870456,39.1878524 26.4063802,39.1727832 26.2601742,39.0723221 Z M28.6297203,36.0132802 L30.2934442,34.8479309 L30.2077372,34.7072853 C30.1573213,34.6269164 29.8094518,34.1296337 29.4363743,33.6072358 C29.0632968,33.0798148 28.7204689,32.5925782 28.6801362,32.5272785 C28.6398035,32.4569557 28.5793044,32.4017021 28.5440133,32.4017021 C28.4885559,32.4017021 27.9238981,32.7834544 26.361006,33.8835039 C26.0433859,34.1095415 25.6400589,34.3908327 25.4636034,34.5113861 C25.2921894,34.6319395 25.1560665,34.7474698 25.1611081,34.767562 C25.2165656,34.9082076 26.8550815,37.1685834 26.9004558,37.1736064 C26.9357469,37.1736064 27.7121514,36.6512085 28.6297203,36.0132802 Z M24.6014919,33.094884 C24.808197,32.9542384 25.0754012,32.7683852 25.2014408,32.6829933 C25.4131875,32.5373246 25.6904748,32.3414254 27.0264955,31.4021137 C27.3239492,31.1911453 27.5709869,31.0052922 27.5709869,30.9851999 C27.5709869,30.9651077 27.2735333,30.5230787 26.9054974,30.0057038 C26.5374615,29.4833058 25.9879285,28.6997089 25.6753501,28.2576799 C25.3627716,27.8156508 24.9191119,27.1827456 24.6821573,26.8512238 C24.4502443,26.5197021 23.6385487,25.369422 22.8823106,24.2894647 C22.1260725,23.2145304 21.4101671,22.1998728 21.2992521,22.0441581 C21.1832956,21.8834202 21.0169233,21.6473366 20.9261747,21.5167371 C20.7547607,21.2706073 19.7968591,19.9043357 19.2674924,19.1508771 C19.1061616,18.9198165 18.929706,18.6736867 18.869207,18.5983408 C18.8137495,18.522995 18.6322524,18.2718421 18.4709216,18.0357584 C18.3095908,17.7996747 18.0423867,17.4179224 17.8760143,17.1818387 C17.7146835,16.945755 17.5079784,16.6493946 17.4222714,16.5137721 C17.3315228,16.3831726 17.2155663,16.2676423 17.1601089,16.2525731 C17.1046514,16.2375039 15.9450863,16.2224348 14.5788161,16.2174117 L12.0983551,16.2023425 L12.184062,16.332942 C12.355476,16.5891179 13.4444589,18.1462657 14.4527764,19.5728139 C15.007351,20.3564108 17.0744019,23.2898763 17.9718044,24.5657328 C18.4104225,25.1885919 19.1565775,26.25348 19.6355283,26.9265697 C20.4623486,28.096942 21.778203,29.9604963 21.8639099,30.0910957 C21.9949912,30.286995 23.3814278,32.2610565 23.4873011,32.4017021 C23.537717,32.4720249 23.709131,32.7131316 23.8654202,32.9441922 C24.0217094,33.1702298 24.1679154,33.3560829 24.1880818,33.3560829 C24.2082481,33.3560829 24.3947868,33.2405526 24.6014919,33.094884 Z M17.5382279,26.8713161 C17.5382279,26.8462008 17.3516892,26.5548635 17.1197762,26.2333878 C16.8929047,25.9119121 16.6357838,25.550252 16.5551184,25.4296986 C16.4694114,25.3091453 16.277831,25.0379002 16.1265834,24.8219087 C15.9753358,24.6059173 15.496385,23.9278045 15.0678501,23.3149916 C14.6393151,22.6971555 14.2057386,22.0893656 14.1099484,21.953743 C13.9133265,21.682498 13.6410808,21.3007456 11.4177407,18.1362196 C10.5757956,16.9357089 9.75401689,15.7703596 9.59772768,15.5493451 C9.13390163,14.8963476 8.46841209,13.9520129 8.37262192,13.8163903 C7.72729873,12.8720556 6.89039521,11.7318216 6.70889807,11.5359224 C6.07869963,10.8829249 5.22162977,10.3956884 4.25868656,10.1395125 C3.70915353,9.99886686 2.47396461,9.97877463 2.23196841,10.1093741 C1.85384935,10.3153195 1.56647887,10.8628327 1.6320195,11.2546312 C1.68243538,11.5560146 1.7126849,11.5961991 4.4048926,15.4237687 C5.05525738,16.3480112 5.03004944,16.3078267 6.77948029,18.8143323 C7.59117587,19.9746585 8.3020397,20.984293 8.36253875,21.0596389 C8.41799621,21.1299617 8.60957654,21.4012067 8.78099051,21.6624057 C8.95744607,21.9185816 9.23977497,22.3204262 9.41118894,22.5565099 C9.5876445,22.7925936 9.85484864,23.1743459 10.0111378,23.4104296 C10.364049,23.9328276 10.8026671,24.4250872 11.2362436,24.7666551 C11.7605687,25.1885919 12.7537614,25.6205748 13.5957065,25.7963818 C13.6864551,25.816474 13.822578,25.8616816 13.8982018,25.901866 C13.9738256,25.9420505 14.0796989,25.9721888 14.1351564,25.9721888 C14.1906138,25.9721888 14.543525,26.0626038 14.9166024,26.1731111 C16.3736212,26.605094 17.4626041,26.9215466 17.5029368,26.9215466 C17.5231031,26.9265697 17.5382279,26.9014544 17.5382279,26.8713161 Z M28.43814,25.6255979 C29.5019149,25.1584536 31.3773855,24.3346722 32.6075328,23.792182 C33.8376801,23.2496918 34.8611224,22.8076628 34.8863303,22.8076628 C34.9115383,22.8076628 35.1081602,22.7222708 35.3249484,22.6117635 C35.5366951,22.5062793 35.9853964,22.300334 36.3181412,22.1596884 C36.6508859,22.0140197 36.9937139,21.863328 37.0844625,21.8231436 C37.1701694,21.7829591 37.2558764,21.7528208 37.2710012,21.7528208 C37.286126,21.7528208 37.5331637,21.6423135 37.8154926,21.506691 C38.1028631,21.3760915 38.5061901,21.1902383 38.7128952,21.1048464 C38.9196003,21.0144313 39.1363886,20.9240163 39.191846,20.893878 C39.2473035,20.8687627 39.6455889,20.6929557 40.0741238,20.5020795 L40.8555699,20.1605116 L40.8706946,14.6351487 L40.8807778,9.10978573 L40.6690311,8.9138865 C40.0035416,8.29605046 38.9800993,7.59282245 38.0826968,7.13572424 C37.0340466,6.60328018 36.1265608,6.29687369 34.8056649,6.03065166 C34.69475,6.00553637 34.205716,5.95028274 33.7217236,5.90507523 C32.8949033,5.82470631 32.6932398,5.82470631 31.7050886,5.91009828 C29.4968733,6.09092834 27.5810701,7.06540144 25.529144,9.04448599 C25.3073142,9.26047745 25.0552348,9.47144585 24.9644862,9.51665337 C24.8233218,9.58697617 24.1931233,9.59702228 18.7835,9.59702228 C14.689731,9.59702228 12.673096,9.61209145 12.4663909,9.65227591 C11.5336973,9.82305986 10.7572928,10.5664723 10.5052134,11.5359224 C10.2480925,12.5204416 10.7320849,13.6757447 11.6244458,14.2081888 C12.3201849,14.6200795 11.780735,14.5899412 18.5213375,14.6200795 C25.0350685,14.6502178 24.747698,14.6351487 25.7660986,14.926486 C25.9475958,14.9767166 26.1240513,15.0219241 26.1543009,15.0219241 C26.2702574,15.0219241 27.374365,15.4790223 27.8785238,15.7351982 C28.9170908,16.2676423 30.2430283,17.2822998 30.5253572,17.7645133 C30.8278524,18.2818882 30.5505651,18.8595398 29.9254083,19.0102315 C29.7237448,19.055439 29.3607505,18.8846551 29.0582552,18.5933178 C28.0297714,17.6087985 26.7794577,16.9055705 25.4031043,16.5338643 C24.4603275,16.2827114 24.1981649,16.2626192 21.6874544,16.242527 C19.9833978,16.2274578 19.3027835,16.2375039 19.3027835,16.2726653 C19.3027835,16.332942 19.5346965,16.6694868 21.5462899,19.5175603 C21.9949912,20.1554886 22.81677,21.3158148 23.366303,22.1044348 C23.9208776,22.8930547 24.4653691,23.6615825 24.5712424,23.8122742 C24.8434881,24.1940266 25.6249342,25.3041222 25.9475958,25.7662435 C26.0938018,25.9772119 26.2601742,26.2233417 26.3206733,26.3137567 C26.3761307,26.3991487 26.4416713,26.4744945 26.4618377,26.4744945 C26.4870456,26.4744945 27.374365,26.0927422 28.43814,25.6255979 Z M8.91711337,11.0738011 C9.15910957,10.1244433 9.77922482,9.23536216 10.5657125,8.7029181 C10.9236652,8.46181135 11.3370753,8.24079683 11.4328655,8.24079683 C11.4731982,8.24079683 11.488323,8.20563543 11.4731982,8.14535875 C11.4479903,8.03485149 9.4666464,5.1918011 9.39606418,5.16166276 C9.37085624,5.15161664 8.98265401,5.39272339 8.53899431,5.70917599 C8.09533462,6.02060554 7.34413808,6.54300349 6.86518728,6.86950221 C6.38623647,7.19600093 5.99803424,7.48733825 5.99299265,7.51245354 C5.99299265,7.54259188 6.2148225,7.87411366 6.48706822,8.255866 C6.75427235,8.6325953 7.37438761,9.51163031 7.85838,10.1997891 C8.3423724,10.887948 8.76082416,11.4455073 8.7860321,11.440518 C8.81124003,11.4304382 8.87173908,11.2697003 8.91711337,11.0738011 Z M21.9042426,7.9394134 L23.7897964,7.9394134 L23.7897964,5.68406071 C23.7897964,3.56935362 23.7847548,3.40861579 23.6889646,3.1022093 C23.512509,2.53460383 23.0839741,2.06745951 22.4941084,1.79621442 C22.2924449,1.70579939 22.1613636,1.68570716 21.6975376,1.68570716 C21.1782541,1.68570716 21.1227966,1.69575327 20.8152598,1.84142193 C20.2909347,2.09257479 19.9228988,2.50446549 19.7262769,3.05197872 C19.6052788,3.39354661 19.6052788,3.39856967 19.6052788,5.66396848 L19.6052788,7.93439034 L19.7464432,7.95448257 C19.822067,7.96452869 19.9128156,7.96452869 19.9481067,7.95448257 C19.9884394,7.94945951 20.8656756,7.9394134 21.9042426,7.9394134 Z M17.9415549,7.0001017 C17.9516381,3.14239375 17.9516381,3.09216318 17.5886438,2.56474217 C17.3012733,2.14280537 16.9281958,1.87156028 16.449245,1.73091468 C16.0560012,1.62040742 15.3400958,1.65054576 15.0023094,1.80123748 C14.6796478,1.94188308 14.1502811,2.45925797 13.9889503,2.78073363 C13.7772037,3.22276267 13.7570373,3.4538233 13.7570373,5.75438351 L13.7570373,7.9394134 L15.8492961,7.9394134 L17.9415549,7.9394134 L17.9415549,7.0001017 Z M5.69553899,5.66899154 C5.86191137,5.54843816 6.04845011,5.41783867 6.10894916,5.37765422 C6.16944821,5.33746976 6.56269203,5.06622467 6.9761022,4.77488735 C7.39455396,4.48355003 7.79283937,4.20728188 7.87350477,4.15705131 C7.94912858,4.1118438 8.00962763,4.05156711 8.00962763,4.02645182 C8.00962763,4.00133654 7.45001142,3.64972253 6.76435553,3.2428549 C6.07365805,2.83598726 5.43337644,2.45423491 5.33758628,2.38893517 C4.79813642,2.05239034 4.36960149,1.80626053 4.34439355,1.82635276 C4.33431038,1.84142193 4.45026689,2.36884294 4.6065561,3.00174815 C4.75780372,3.6296303 4.98467516,4.53880366 5.10063167,5.01097104 C5.21658818,5.48816148 5.3275031,5.87995994 5.35271104,5.87995994 C5.37287739,5.87995994 5.5291666,5.78452185 5.69553899,5.66899154 Z" id="Shape" transform="translate(20.446820, 19.588889) scale(-1, 1) rotate(-180.000000) translate(-20.446820, -19.588889) "></path>
                </g>
            </g>
        </g>
    </g>
</svg>