<?xml version="1.0" encoding="UTF-8"?>
<svg width="35px" height="38px" viewBox="0 0 35 38" version="1.1" xmlns="http://www.w3.org/2000/svg" xmlns:xlink="http://www.w3.org/1999/xlink">
    <title>Leaf Copy</title>
    <g id="Startsida" stroke="none" stroke-width="1" fill="none" fill-rule="evenodd">
        <g id="Start-Page" transform="translate(-862.000000, -5533.000000)" fill="#1E44CB" fill-rule="nonzero">
            <g id="Group-7" transform="translate(-116.500000, 5479.000000)">
                <g id="Leaf-Copy" transform="translate(978.500000, 53.999322)">
                    <path d="M33.0109338,37.166412 C32.8277941,36.9615732 32.2669287,36.2901573 31.7747408,35.675641 C30.7331336,34.355569 29.8288813,33.6500132 28.2149625,32.864798 C25.5136517,31.5561059 23.7165932,31.1009086 17.1693484,30.0767148 C13.4951078,29.4963383 11.4233398,28.9387216 9.59194263,28.0283271 C8.17260983,27.3113915 7.27980372,26.6627354 6.21530412,25.5361222 C4.78452509,24.0339712 3.88027274,22.1790424 3.49110084,19.9827157 C3.29651489,18.8902423 3.26217619,15.94284 3.43386968,15.3283237 C3.63990186,14.6113881 4.52126174,14.3041299 5.13935829,14.7365673 C5.41406786,14.9186462 5.41406786,14.9300262 5.33394423,16.4663169 C5.20803568,19.0495613 5.55142265,21.0751891 6.3869976,22.6797594 C6.89063182,23.6470536 8.32141085,25.1150647 9.32867929,25.7068211 C11.3088775,26.8561942 13.0029198,27.3341513 18.7718209,28.3697251 C24.3575823,29.382539 26.5094739,29.9287757 28.7071505,30.9415896 C29.9776823,31.5219661 30.8933809,32.0909626 31.9464342,32.9330775 L32.8163479,33.6272534 L32.8964715,32.7737585 C33.0223801,31.2829875 32.9651489,27.5162302 32.7934554,25.8433803 C32.278375,20.756551 30.6072251,16.3980373 28.2149625,13.8716925 C26.3835654,11.9484841 24.0599802,10.7308315 21.1068523,10.1390751 C20.3399547,9.99113595 19.5272722,9.94561622 17.8561223,9.94561622 C15.4524136,9.94561622 14.7427472,10.0252757 12.5336243,10.5828924 C10.7022272,11.0494696 8.12682491,12.0281437 8.12682491,12.2671222 C8.12682491,12.3240219 8.88227623,13.1433769 9.80942105,14.0992912 C11.583587,15.9087002 13.0715972,17.2287723 15.4180749,19.0837011 C16.7801765,20.1534146 17.0548861,20.4606728 17.0548861,20.92725 C17.0548861,21.2914078 16.6886066,21.8262645 16.4024508,21.8945441 C15.8644779,22.0311033 15.8072468,21.9969635 12.3619308,19.2316402 C10.8968131,18.0595073 6.87918559,14.0651514 5.82613222,12.7223195 C4.13208985,10.5828924 2.8730043,8.60278432 1.87718209,6.52025688 C0.96148351,4.58566855 0,1.76344558 0,0.978230316 C0,0.5002732 0.377725665,0.113355534 0.927144813,0.022316083 C1.57958005,-0.0914832305 1.78561223,0.193015053 2.24346152,1.74068572 C3.03325155,4.39220972 4.16642854,6.80475517 5.75745483,9.16040096 C6.20385789,9.83181691 6.61592225,10.4235733 6.65026094,10.480473 C6.68459964,10.5259927 7.22257256,10.3439138 7.85211533,10.0594155 C13.3234144,7.64687009 19.0007456,7.1802929 23.7165932,8.7393435 C29.0505375,10.5146128 32.8049017,15.0893452 34.2700194,21.6214258 C34.7850998,23.8974121 34.9339009,25.3426633 34.991132,28.6542234 C35.0483632,31.7154249 34.8194385,36.1308383 34.5676214,36.7794943 C34.4417129,37.1208923 34.0868797,37.4053906 33.6977078,37.4850501 C33.4229982,37.5305698 33.3085359,37.4850501 33.0109338,37.166412 Z" id="Path" transform="translate(17.500000, 18.750000) scale(-1, 1) rotate(-180.000000) translate(-17.500000, -18.750000) "></path>
                </g>
            </g>
        </g>
    </g>
</svg>