<?xml version="1.0" encoding="UTF-8"?>
<svg width="40px" height="40px" viewBox="0 0 40 40" version="1.1" xmlns="http://www.w3.org/2000/svg" xmlns:xlink="http://www.w3.org/1999/xlink">
    <title>Quality Copy</title>
    <g id="Startsida" stroke="none" stroke-width="1" fill="none" fill-rule="evenodd">
        <g id="Start-Page" transform="translate(-1340.000000, -5536.000000)" fill="#1E44CB" fill-rule="nonzero">
            <g id="Group-7" transform="translate(-116.500000, 5479.000000)">
                <g id="Quality-Copy" transform="translate(1476.500000, 76.999322) scale(-1, 1) rotate(-180.000000) translate(-1476.500000, -76.999322) translate(1456.500000, 56.999322)">
                    <path d="M17.6045845,38.56 L15.4383954,37.12 L12.8481375,37.2685714 C11.0372493,37.36 10.1776504,37.3714286 10.017192,37.2914286 C9.9025788,37.2228571 9.26074499,36.1257143 8.59598854,34.8457143 L7.39255014,32.5142857 L5.11174785,31.36 C3.53008596,30.56 2.78510029,30.1142857 2.69340974,29.9314286 C2.57879656,29.7142857 2.57879656,29.1085714 2.70487106,27.1428571 L2.84240688,24.6285714 L1.42120344,22.4457143 C0.641833811,21.2457143 0,20.1485714 0,20 C0,19.8514286 0.641833811,18.7542857 1.42120344,17.5542857 L2.83094556,15.3714286 L2.73925501,13.6 C2.69340974,12.6285714 2.62464183,11.4971429 2.59025788,11.0857143 C2.54441261,10.6057143 2.57879656,10.2514286 2.67048711,10.08 C2.76217765,9.89714286 3.5530086,9.42857143 5.10028653,8.65142857 L7.39255014,7.48571429 L8.59598854,5.15428571 C9.26074499,3.87428571 9.9025788,2.77714286 10.017192,2.70857143 C10.1661891,2.62857143 11.0601719,2.64 12.8366762,2.74285714 L15.4383954,2.88 L17.6045845,1.44 C18.7965616,0.651428571 19.8739255,0 20,0 C20.1260745,0 21.2034384,0.651428571 22.3954155,1.44 L24.5616046,2.88 L27.1633238,2.74285714 C28.9398281,2.64 29.8338109,2.62857143 29.982808,2.70857143 C30.0974212,2.77714286 30.739255,3.87428571 31.4040115,5.15428571 L32.6074499,7.48571429 L34.8997135,8.65142857 C36.4928367,9.45142857 37.2378223,9.88571429 37.3180516,10.08 C37.4212034,10.2742857 37.4212034,10.96 37.3065903,12.8571429 L37.1575931,15.3714286 L38.5787966,17.5428571 C39.4383954,18.8571429 40,19.8285714 40,20 C40,20.1714286 39.4383954,21.1428571 38.5902579,22.4571429 L37.1690544,24.6285714 L37.3180516,27.2 C37.4441261,29.2342857 37.4441261,29.8057143 37.3295129,29.9771429 C37.260745,30.0914286 36.1604585,30.7085714 34.8997135,31.3485714 L32.6074499,32.5257143 L31.4498567,34.8 C30.8080229,36.0571429 30.1776504,37.1542857 30.0401146,37.2457143 C29.8223496,37.3828571 29.4326648,37.3828571 27.2206304,37.2571429 C25.8108883,37.1885714 24.5959885,37.1542857 24.504298,37.2 C24.4240688,37.2457143 23.4269341,37.8971429 22.2808023,38.64 C21.1461318,39.3942857 20.1146132,40 19.9885387,40 C19.8739255,40 18.7965616,39.3485714 17.6045845,38.56 Z M22.991404,36.1828571 L24.1489971,35.4171429 L26.5100287,35.5542857 C27.8051576,35.6228571 28.9283668,35.6571429 29.008596,35.6228571 C29.1002865,35.5885714 29.6618911,34.6057143 30.2578797,33.4285714 L31.3467049,31.3028571 L33.5587393,30.1942857 L35.782235,29.0857143 L35.713467,28.3428571 C35.6790831,27.9314286 35.6217765,26.8114286 35.5759312,25.8628571 L35.495702,24.1142857 L36.8481375,22.0571429 L38.1891117,20 L36.8481375,17.9428571 L35.495702,15.8857143 L35.5759312,14.1371429 C35.6217765,13.1885714 35.6790831,12.0685714 35.713467,11.6571429 L35.782235,10.9142857 L33.5587393,9.80571429 L31.3467049,8.69714286 L30.2464183,6.54857143 L29.1346705,4.4 L28.1260745,4.4 C27.5644699,4.4 26.4068768,4.43428571 25.5587393,4.45714286 L24.0114613,4.51428571 L22.017192,3.17714286 L20.0229226,1.85142857 L19.0945559,2.44571429 C18.5902579,2.77714286 17.6389685,3.39428571 16.9971347,3.81714286 L15.8395415,4.59428571 L13.8911175,4.46857143 C12.8137536,4.4 11.7020057,4.34285714 11.4154728,4.34285714 L10.8882521,4.34285714 L9.79942693,6.51428571 L8.71060172,8.68571429 L6.46418338,9.80571429 L4.21776504,10.9142857 L4.28653295,11.4857143 C4.32091691,11.8057143 4.3782235,12.9371429 4.42406877,14 L4.50429799,15.9428571 L3.15186246,17.9771429 L1.79942693,20 L3.15186246,22.0342857 L4.50429799,24.0571429 L4.41260745,26.1142857 C4.35530086,27.2457143 4.30945559,28.3771429 4.30945559,28.6285714 L4.29799427,29.0857143 L6.49856734,30.1942857 L8.6991404,31.3142857 L9.79942693,33.4971429 L10.9111748,35.6914286 L12.4126074,35.6114286 C13.2492837,35.5771429 14.3610315,35.5085714 14.8997135,35.4742857 L15.8739255,35.4171429 L17.9369628,36.7771429 L20,38.1371429 L20.9169054,37.5428571 C21.4212034,37.2228571 22.3610315,36.6057143 22.991404,36.1828571 Z" id="Shape"></path>
                    <path d="M18.3954155,32.3314286 C13.3868195,31.6457143 9.31805158,28.0685714 7.94269341,23.1314286 C7.65616046,22.0914286 7.6217765,21.8285714 7.6217765,20 C7.6217765,18.1714286 7.65616046,17.9085714 7.94269341,16.8685714 C8.55014327,14.6857143 9.6504298,12.7771429 11.243553,11.2 C13.260745,9.17714286 15.8280802,7.96571429 18.8080229,7.63428571 C22.9684814,7.17714286 27.3581662,9.08571429 29.9140401,12.48 C32.4126074,15.7714286 33.1232092,20.1371429 31.8051576,23.9885714 C30.4068768,28.1028571 26.7965616,31.28 22.5100287,32.1714286 C21.3868195,32.4 19.4613181,32.48 18.3954155,32.3314286 Z M22.8080229,30.4 C26.739255,29.2685714 29.5816619,26.2971429 30.5673352,22.3085714 C30.8538682,21.1542857 30.8194842,18.6171429 30.4985673,17.44 C29.9713467,15.4857143 29.1575931,14.0228571 27.7936963,12.5828571 C26.4527221,11.1657143 24.9169054,10.24 22.9570201,9.63428571 C22.0401146,9.36 21.7765043,9.32571429 20.0573066,9.32571429 C17.8567335,9.31428571 17.0659026,9.48571429 15.3008596,10.3428571 C12.3209169,11.7828571 10.1432665,14.5485714 9.44412607,17.7714286 C9.18051576,18.9828571 9.18051576,21.0171429 9.44412607,22.2285714 C10.3381089,26.3657143 13.5931232,29.6 17.765043,30.5257143 C19.1060172,30.8228571 21.5702006,30.7657143 22.8080229,30.4 Z" id="Shape"></path>
                    <path d="M22.3839542,21.7485714 C21.1346705,20.5828571 19.747851,19.2571429 19.2893983,18.8228571 L18.4641834,18.0228571 L16.9627507,19.5885714 C16.1260745,20.4457143 15.3237822,21.1771429 15.1633238,21.2114286 C14.5787966,21.36 13.982808,20.7657143 14.1661891,20.1942857 C14.2005731,20.0685714 15.0945559,19.0971429 16.1375358,18.0457143 C17.8567335,16.2971429 18.0630372,16.1142857 18.4183381,16.1142857 C18.8538682,16.1142857 18.6934097,15.9771429 22.0630372,19.1428571 C26.1432665,22.96 26.0744986,22.8914286 25.7765043,23.4514286 C25.5931232,23.8057143 25.4555874,23.8857143 25.0200573,23.8857143 C24.6991404,23.8857143 24.3667622,23.6114286 22.3839542,21.7485714 Z" id="Path"></path>
                </g>
            </g>
        </g>
    </g>
</svg>